<svg width="464" height="313" viewBox="0 0 464 313" fill="none" xmlns="http://www.w3.org/2000/svg">
<g clip-path="url(#clip0_62_934)">
<path d="M439.637 307.262C433.775 310.281 426.672 310.09 421.221 306.378C420.712 306.029 420.203 305.643 419.719 305.219C416.935 302.825 414.693 299.239 414.234 293.877L415.418 282.809C428.892 279.189 437.812 270.257 442.581 256.496C443.165 254.827 443.681 253.092 444.139 251.282C445.415 246.245 452.201 245.202 454.811 249.698C464.942 267.13 464.75 294.301 439.637 307.262Z" fill="#FF960B"/>
<g opacity="0.55">
<path opacity="0.55" d="M442.588 305.602C458.896 291.466 457.887 268.997 449.091 253.868C447.982 251.951 446.098 251.04 444.222 251.015C445.655 246.211 452.251 245.286 454.81 249.698C464.523 266.42 464.749 292.099 442.586 305.602H442.588Z" fill="white"/>
</g>
<path d="M431.047 312.29C426.986 312.29 422.989 311.115 419.58 308.79C414.718 305.475 411.864 300.403 411.325 294.124C411.187 292.518 412.376 291.103 413.981 290.965C415.587 290.832 417 292.016 417.138 293.622C417.534 298.222 419.408 301.606 422.867 303.964C427.328 307.005 433.242 307.276 438.297 304.667C447.67 299.83 454.043 292.418 456.725 283.23C459.697 273.042 458.04 261.055 452.291 251.162C451.411 249.646 449.886 249.734 449.442 249.795C448.976 249.861 447.421 250.213 446.97 251.997C442.403 270.049 432.041 281.364 416.171 285.624C414.612 286.043 413.014 285.117 412.597 283.561C412.179 282.004 413.102 280.404 414.659 279.984C428.528 276.26 437.246 266.639 441.312 250.566C442.192 247.085 445.066 244.515 448.631 244.014C452.196 243.514 455.535 245.128 457.335 248.227C463.873 259.474 465.738 273.171 462.327 284.864C459.188 295.624 451.803 304.267 440.972 309.855C437.819 311.482 434.41 312.287 431.047 312.287V312.29Z" fill="#000072"/>
<g opacity="0.3">
<path opacity="0.3" d="M419.718 305.219C416.934 302.825 414.691 299.239 414.232 293.877L415.416 282.809C428.89 279.189 437.81 270.257 442.579 256.496H442.588C442.588 256.496 456.286 299.172 419.718 305.219Z" fill="#000072"/>
</g>
<path d="M239.582 282.809C228.775 267.031 238.854 248.481 238.854 248.481L255.112 263.193L239.582 282.809Z" fill="#EF9F21"/>
<path d="M239.557 283.511L239.238 283.044C228.414 267.239 238.385 248.469 238.487 248.281L238.74 247.815L255.68 263.144L239.557 283.509V283.511ZM238.978 249.157C237.545 252.112 230.502 268.214 239.609 282.101L254.541 263.239L238.978 249.157Z" fill="#000072"/>
<g opacity="0.3">
<path opacity="0.3" d="M239.582 282.809C228.775 267.031 238.854 248.481 238.854 248.481L255.112 263.193L239.582 282.809Z" fill="#000072"/>
</g>
<path d="M414.981 299.446C413.689 305.534 408.353 309.914 402.125 309.914H262.215L255.112 263.193C254.786 262.942 254.462 262.7 254.138 262.451C227.233 241.7 211.959 211.392 214.818 177.931L224.739 170.225L234.336 162.777L348.984 199.348C393.915 207.38 426.565 244.919 414.983 299.446H414.981Z" fill="#FF960B"/>
<g opacity="0.55">
<path opacity="0.55" d="M414.981 299.446C414.247 302.9 412.213 305.81 409.445 307.67C409.512 307.437 409.571 307.195 409.621 306.954C421.201 252.426 388.553 214.885 343.622 206.855L228.974 170.282L214.583 181.457C214.642 180.289 214.716 179.113 214.816 177.929L234.334 162.775L348.983 199.346C393.913 207.378 426.563 244.917 414.981 299.445V299.446Z" fill="white"/>
</g>
<path d="M216.746 206.077C216.746 206.077 231.461 192.943 245.927 212.125C260.393 231.308 267.52 235.919 267.52 235.919L305.512 271.542C305.512 271.542 316.73 281.121 322.607 279.567L317.517 285.76L309.539 297.196L252.194 260.499C252.194 260.499 219.232 230.053 216.746 206.077Z" fill="white"/>
<path d="M310.539 259.522C301.685 283.293 289.545 300.731 272.378 308.462C271.436 308.887 270.428 309.147 269.41 309.263C266.9 309.556 264.499 309.772 262.215 309.914C244.607 310.973 233.768 307.195 234.359 295.276C234.626 289.839 237.262 284.834 241.214 281.106C254.245 268.787 264.326 248.446 272.061 221.758C272.187 221.333 272.312 220.899 272.436 220.466L310.537 259.522H310.539Z" fill="#FF960B"/>
<g opacity="0.55">
<path opacity="0.55" d="M310.539 259.522C301.686 283.293 289.545 300.731 272.379 308.462C271.436 308.887 270.428 309.147 269.41 309.263C266.9 309.556 264.5 309.772 262.215 309.914C261.691 307.83 261.816 305.643 262.14 303.808C263.032 303.724 263.941 303.626 264.858 303.516C265.883 303.4 266.893 303.142 267.826 302.715C283.217 295.776 294.573 281.031 303.144 260.922C304.41 257.945 308.28 257.202 310.539 259.521V259.522Z" fill="white"/>
</g>
<path d="M415.75 123.161C404.512 154.137 388.103 165.121 375.522 160.992C375.522 160.992 375.513 160.992 375.497 160.983C374.087 160.515 372.72 159.865 371.419 159.022C371.419 159.056 371.428 159.098 371.428 159.13C372.503 174.501 369.277 184.735 362.541 191.432V191.441C358.171 195.787 352.336 198.638 345.24 200.441C333.551 203.41 318.452 203.502 300.969 202.676C292.323 201.767 283.901 200.391 275.849 198.373H275.832C242.233 189.982 215.044 170.667 204.422 129.534C203.521 126.064 202.747 122.437 202.088 118.641L217.493 71.3088L218.01 69.7156C199.409 66.3895 196.149 52.4525 209.881 26.7647C211.081 24.5963 212.281 22.5533 213.499 20.6519C223.963 4.20419 235.01 -2.10036 247.158 10.36C247.4 10.6109 247.642 10.86 247.883 11.127C263.265 0.335086 275.797 9.37615 286.795 29.2002C317.626 31.4277 349.051 44.2125 371.419 63.9451C383.508 56.189 395.889 63.3949 401.851 74.7872C421.552 74.1618 424.363 98.9732 415.75 123.161Z" fill="#FF960B"/>
<g opacity="0.55">
<path opacity="0.55" d="M362.539 191.434V191.443C358.17 195.789 352.335 198.64 345.239 200.443C345.973 199.35 347.372 198.316 349.599 197.391C367.666 189.884 365.14 150.644 365.14 150.644C366.016 154.931 368.917 157.592 371.427 159.135C372.501 174.506 369.275 184.741 362.539 191.438V191.434Z" fill="white"/>
</g>
<g opacity="0.55">
<path opacity="0.55" d="M357.333 59.5671C335.883 43.1892 309.667 37.2879 281.236 35.2359C274.724 23.5014 263.641 9.51056 255.788 7.21669C267.653 3.87266 277.741 12.8886 286.795 29.202C316.159 31.3202 346.066 43.0225 368.168 61.1943C367.958 61.2427 367.758 61.2964 367.562 61.3538C364.037 62.3932 360.255 61.7982 357.333 59.5671Z" fill="white"/>
</g>
<g opacity="0.55">
<path opacity="0.55" d="M247.158 10.36L244.007 15.3563C244.007 15.3563 230.35 0.259818 213.5 20.6519C223.964 4.20419 235.01 -2.10036 247.158 10.36Z" fill="white"/>
</g>
<g opacity="0.55">
<path opacity="0.55" d="M415.75 123.161C404.669 153.72 388.544 164.82 376.038 161.151C386.459 158.307 397.756 146.322 406.161 123.161C414.775 98.975 411.964 74.1618 392.263 74.7872C388.861 68.282 383.367 63.144 377.03 61.3842C387.193 58.5241 396.815 65.1619 401.851 74.7872C421.552 74.1618 424.363 98.9732 415.75 123.161Z" fill="white"/>
</g>
<path d="M362.539 191.434V191.443C350.966 202.961 329.056 204.004 300.967 202.677C256.221 197.989 217.593 180.526 204.42 129.534C216.251 147.374 251.635 139.291 251.635 139.291L258.446 136.481C275.213 130.344 288.278 134.756 297.631 149.718C313.905 176.857 333.382 196.106 362.539 191.436V191.434Z" fill="white"/>
<path d="M317.512 206.034C312.295 206.034 306.736 205.867 300.831 205.59C300.775 205.588 300.72 205.583 300.664 205.577C273.183 202.701 251.939 195.452 235.716 183.42C216.387 169.083 204.103 147.456 199.209 119.14C199.128 118.672 199.162 118.192 199.309 117.738L214.241 71.8661C207.484 70.0436 202.844 66.6028 200.427 61.6154C196.434 53.3682 198.684 41.519 207.308 25.3884C215.837 9.97471 224.076 2.00531 232.516 0.989198C237.876 0.340463 243.174 2.49276 248.294 7.37798C253.973 3.95151 259.596 2.85117 265.042 4.10384C273.371 6.02137 281.076 13.3223 288.572 26.4081C318.812 28.9457 349.635 41.5405 371.754 60.3753C376.688 57.7732 381.962 57.1191 387.125 58.4864C393.645 60.214 399.562 65.0544 403.573 71.8805C409.678 72.1331 414.675 74.7155 418.1 79.4126C424.867 88.6902 425.019 105.83 418.494 124.143C410.748 145.494 399.825 159.488 387.729 163.563C383.193 165.092 378.712 165.144 374.542 163.752C374.71 176.737 371.541 186.402 364.913 193.196C355.246 203.104 339.411 206.034 317.512 206.034ZM301.189 199.762C329.411 201.084 350.337 199.776 360.738 189.119C366.95 182.753 369.492 172.977 368.51 159.232C368.431 158.128 368.983 157.074 369.934 156.512C370.885 155.949 372.073 155.97 373.003 156.571C376.865 159.062 381.314 159.567 385.869 158.033C396.095 154.587 405.986 141.515 413.005 122.17C418.795 105.918 418.948 90.4787 413.389 82.8552C410.782 79.28 406.925 77.547 401.946 77.7083C400.819 77.746 399.786 77.1367 399.266 76.1438C396.074 70.0382 390.975 65.5472 385.631 64.1315C381.36 62.9989 377.111 63.7641 372.998 66.4056C371.901 67.1099 370.47 67.0024 369.492 66.1386C347.824 47.0225 316.831 34.3005 286.585 32.1087C285.603 32.0371 284.722 31.4761 284.244 30.6141C277.45 18.367 270.549 11.3618 263.735 9.79371C259.242 8.75788 254.605 9.97829 249.562 13.5177C248.365 14.3581 246.732 14.1825 245.741 13.1073C241.368 8.36542 237.271 6.29377 233.213 6.78659C226.857 7.55181 219.866 14.7488 212.433 28.1805C204.879 42.3111 202.6 52.7159 205.68 59.0706C207.634 63.1028 211.835 65.6458 218.525 66.8447C219.356 66.9934 220.081 67.4952 220.515 68.2192C220.948 68.9432 221.047 69.8196 220.785 70.6224L205.085 118.855C213.84 168.078 244.399 193.794 301.187 199.762H301.189Z" fill="#000072"/>
<path d="M369.347 161.078C365.343 156.788 362.302 151.677 360.323 146.288C358.367 140.877 357.419 135.24 357.08 129.655C356.754 124.062 357.012 118.494 357.671 113.011C358.347 107.527 359.379 102.12 360.608 96.7743C360.762 96.1005 361.434 95.6811 362.107 95.8352C362.759 95.9858 363.173 96.6184 363.058 97.2689L363.055 97.2886C362.114 102.613 361.374 107.964 360.991 113.321C360.62 118.675 360.656 124.041 361.233 129.301C361.821 134.551 362.98 139.713 364.979 144.462C367.005 149.195 369.879 153.465 373.49 156.969L373.512 156.99C374.669 158.114 374.698 159.961 373.574 161.119C372.451 162.277 370.604 162.305 369.447 161.182C369.415 161.15 369.377 161.11 369.347 161.078Z" fill="#000072"/>
<path d="M404.759 74.5471C405.067 81.6778 404.845 88.8425 403.899 95.9123C402.96 102.98 401.282 109.935 398.874 116.595C398.639 117.245 397.921 117.582 397.27 117.346C396.654 117.122 396.321 116.457 396.489 115.835C398.311 109.179 399.386 102.36 399.746 95.5216C400.112 88.6795 399.777 81.8247 398.942 75.0363V75.0309C398.745 73.4288 399.882 71.9719 401.482 71.7747C403.084 71.5776 404.54 72.7156 404.737 74.3177C404.746 74.393 404.753 74.4736 404.757 74.5489L404.759 74.5471Z" fill="#000072"/>
<path d="M216.905 68.7999L226.507 67.2515L224.995 67.9863L252.597 44.8182C253.127 44.3738 253.915 44.4436 254.362 44.9723C254.779 45.4705 254.74 46.2035 254.292 46.6587L228.951 72.2801C228.56 72.6743 228.071 72.9145 227.563 72.9951L227.439 73.0148L217.837 74.5632C216.246 74.8195 214.748 73.7371 214.492 72.1457C214.236 70.5543 215.318 69.0561 216.909 68.7999H216.905Z" fill="#000072"/>
<path d="M249.938 13.2022C245.151 17.5749 241.038 22.8544 237.407 28.4726C233.775 34.1033 230.606 40.0943 227.709 46.225C227.416 46.8504 226.67 47.121 226.045 46.8271C225.452 46.5494 225.182 45.8558 225.406 45.2519C227.824 38.829 230.538 32.4851 233.817 26.3561C237.1 20.2416 240.952 14.3133 245.836 9.04999C246.934 7.86721 248.781 7.79911 249.963 8.89766C251.146 9.99621 251.214 11.8438 250.116 13.0266C250.062 13.084 250.006 13.1395 249.949 13.1915L249.938 13.2005V13.2022Z" fill="#000072"/>
<path d="M277.864 146.13C284.068 149.53 287.595 155.031 285.739 158.418C283.883 161.805 275.856 162.696 269.65 159.297C263.446 155.897 261.416 149.492 263.271 146.105C265.125 142.718 271.658 142.729 277.862 146.13H277.864Z" fill="#000072"/>
<path d="M290.512 174.128C288.525 175.499 286.225 176.676 283.561 177.029C280.895 177.406 278.05 176.619 275.802 175.242C273.522 173.868 271.71 172.035 270.139 170.128C268.572 168.209 267.232 166.18 265.999 164.119L269.828 165.424C267.42 166.354 264.91 167.144 262.217 167.468C259.548 167.798 256.617 167.572 254.009 166.402C251.391 165.255 249.304 163.262 247.871 161.083C246.427 158.89 245.478 156.535 244.752 154.171C244.55 153.51 244.92 152.809 245.582 152.607C246.196 152.419 246.845 152.725 247.095 153.302L247.101 153.315C248.025 155.427 249.145 157.433 250.542 159.089C251.94 160.745 253.649 161.951 255.503 162.51C257.357 163.083 259.372 163.026 261.39 162.533C263.41 162.042 265.408 161.158 267.352 160.135C268.64 159.458 270.218 159.899 270.978 161.112L271.182 161.44C272.07 163.44 273.043 165.384 274.174 167.171C275.302 168.952 276.599 170.587 278.124 171.78C279.645 172.968 281.392 173.716 283.321 173.701C285.249 173.692 287.277 173.01 289.188 172.002L289.215 171.988C289.828 171.665 290.584 171.9 290.906 172.513C291.205 173.081 291.024 173.773 290.509 174.128H290.512Z" fill="#000072"/>
<path d="M268.588 165.7C268.135 165.7 267.674 165.592 267.242 165.368C265.813 164.623 265.257 162.861 266.003 161.431L269.476 154.759C270.222 153.329 271.983 152.775 273.412 153.519C274.842 154.264 275.397 156.026 274.652 157.456L271.178 164.128C270.659 165.128 269.641 165.7 268.588 165.7Z" fill="#000072"/>
<path d="M257.581 176.047C258.464 176.888 259.294 177.649 260.171 178.309C261.055 178.959 261.959 179.533 262.941 180.006C263.427 180.25 263.925 180.488 264.449 180.673C264.956 180.907 265.499 181.072 266.042 181.267C267.135 181.637 268.28 181.965 269.48 182.38L269.519 182.395C270.193 182.628 270.551 183.364 270.317 184.038C270.163 184.481 269.792 184.787 269.364 184.879C268.007 185.167 266.603 185.189 265.2 184.995C264.847 184.963 264.498 184.891 264.149 184.809C263.799 184.739 263.45 184.647 263.102 184.543C262.757 184.438 262.416 184.314 262.079 184.174C261.739 184.043 261.4 183.904 261.076 183.726C259.77 183.056 258.547 182.162 257.568 181.054C256.585 179.957 255.825 178.678 255.417 177.311C255.214 176.63 255.601 175.913 256.282 175.708C256.739 175.572 257.212 175.701 257.536 176.008L257.576 176.045L257.581 176.047Z" fill="#000072"/>
<g opacity="0.3">
<path opacity="0.3" d="M389.203 159.829C370.812 147.401 366.106 122.656 371.856 88.4949C372.392 85.3157 369.436 82.624 366.333 83.4932C359.08 85.5254 348.117 91.8264 345.514 111.27C341.541 140.956 359.769 154.259 369.622 157.071C369.622 157.071 379.891 162.3 389.203 159.829Z" fill="#000072"/>
</g>
<g opacity="0.3">
<path opacity="0.3" d="M243.716 15.2972C236.321 25.3741 229.341 38.8685 225.051 49.8826C224.128 52.25 220.76 52.2213 219.875 49.8396C214.54 35.4545 230.601 9.96394 243.716 15.2972Z" fill="#000072"/>
</g>
<g opacity="0.3">
<path opacity="0.3" d="M286.236 199.348C286.236 199.348 282.183 199.014 275.847 198.373H275.831C242.231 189.982 215.042 170.667 204.42 129.534C203.519 126.064 202.745 122.437 202.086 118.641L217.493 71.3088L226.971 70.1332L249.474 49.3987C221.228 129.824 230.914 181.733 286.234 199.348H286.236Z" fill="#000072"/>
</g>
<path d="M349.497 196.477C359.812 198.344 369.891 201.78 379.103 206.918C388.308 212.039 396.62 218.896 403.218 227.191C409.845 235.464 414.639 245.182 417.349 255.397C418.713 260.504 419.573 265.734 419.983 270.985C420.406 276.239 420.271 281.509 419.827 286.73C419.687 288.033 419.621 289.346 419.419 290.638L418.867 294.525C418.654 295.816 418.39 297.095 418.154 298.38C418.021 299.041 417.937 299.62 417.761 300.35C417.665 300.724 417.573 301.102 417.464 301.475L417.077 302.575C415.932 305.462 413.978 308.045 411.429 309.839C408.899 311.64 405.827 312.728 402.711 312.81L372.037 312.833H310.876C309.364 312.833 308.12 311.659 307.995 310.177V310.172C307.744 307.364 307.553 304.493 307.653 301.52C307.75 298.561 308.178 295.448 309.332 292.466C310.458 289.481 312.318 286.748 314.543 284.572C316.766 282.379 319.285 280.674 321.852 279.214L320.491 282.66V282.656C318.393 275.639 317.35 268.257 317.814 260.888C318.049 257.209 318.663 253.537 319.74 249.985C320.824 246.438 322.372 243.015 324.4 239.892C326.422 236.766 328.927 233.951 331.799 231.604C334.667 229.25 337.893 227.374 341.285 225.987C348.092 223.2 355.419 222.385 362.551 222.552C363.241 222.568 363.789 223.141 363.773 223.831C363.757 224.505 363.212 225.041 362.546 225.053H362.524C355.647 225.163 348.746 226.242 342.608 229.05C336.469 231.815 331.288 236.388 327.942 242.093C324.547 247.781 322.956 254.445 322.812 261.114C322.657 267.798 323.869 274.513 326.046 280.87V280.873L326.057 280.906C326.456 282.25 325.854 283.655 324.686 284.319C322.454 285.59 320.365 287.027 318.651 288.723C316.931 290.414 315.621 292.359 314.787 294.547C313.936 296.731 313.567 299.174 313.486 301.733C313.398 304.29 313.567 306.952 313.808 309.649V309.652L310.903 306.998H372.039L402.5 306.979C404.485 306.932 406.42 306.235 408.035 305.093C409.668 303.955 410.904 302.298 411.64 300.459L411.889 299.756L412.077 299.034C412.202 298.527 412.31 297.843 412.428 297.257C412.652 296.036 412.905 294.819 413.105 293.595L413.627 289.914C413.822 288.689 413.879 287.452 414.014 286.221C414.433 281.294 414.56 276.339 414.162 271.427C413.777 266.517 412.976 261.651 411.712 256.911C409.195 247.435 404.775 238.478 398.652 230.833C392.553 223.166 384.852 216.803 376.258 212.021C367.662 207.228 358.2 203.993 348.47 202.229H348.458C346.872 201.939 345.819 200.421 346.107 198.835C346.394 197.249 347.913 196.196 349.499 196.484L349.497 196.477Z" fill="#000072"/>
<path d="M273.64 220.808C269.887 236.713 264.682 252.488 256.23 266.96C254.08 270.547 251.672 274.013 248.897 277.21C248.24 278.036 247.491 278.793 246.785 279.583L245.71 280.755L244.576 281.877L242.455 283.981C241.832 284.622 241.271 285.314 240.739 286.026C238.636 288.882 237.36 292.282 237.267 295.712C237.212 297.429 237.448 299.041 238.057 300.396C238.657 301.756 239.632 302.882 240.941 303.799C243.589 305.633 247.33 306.504 251.097 306.887C254.899 307.269 258.844 307.217 262.792 306.95C264.768 306.814 266.75 306.635 268.731 306.405L269.095 306.364L269.372 306.326C269.557 306.298 269.738 306.264 269.915 306.222C270.272 306.14 270.614 306.034 270.936 305.905L271.175 305.803L271.495 305.644L272.138 305.325L273.425 304.688C276.83 302.929 279.933 300.645 282.932 298.221C285.958 295.816 288.704 293.015 291.264 290.036C292.57 288.567 293.74 286.972 294.949 285.405C296.076 283.776 297.252 282.174 298.303 280.481C299.414 278.825 300.392 277.081 301.419 275.363C302.366 273.599 303.378 271.865 304.254 270.055C306.128 266.495 307.753 262.798 309.362 259.089L309.371 259.069C309.647 258.435 310.383 258.144 311.017 258.418C311.616 258.678 311.906 259.354 311.707 259.961C309.122 267.737 306.098 275.44 302.049 282.71C301.084 284.552 299.964 286.314 298.876 288.097C297.703 289.828 296.565 291.59 295.267 293.249C292.721 296.593 289.949 299.83 286.746 302.67C283.556 305.523 279.915 307.876 276.107 309.875L274.657 310.591L273.932 310.948L273.57 311.125L273.106 311.323C272.484 311.572 271.852 311.765 271.218 311.912C270.901 311.986 270.582 312.045 270.263 312.095L269.784 312.16L269.39 312.204C267.332 312.443 265.259 312.631 263.177 312.774C259.012 313.052 254.791 313.122 250.495 312.694C248.347 312.471 246.178 312.113 244.001 311.504C241.832 310.885 239.632 309.991 237.597 308.584C236.579 307.884 235.63 307.018 234.784 306.049C233.937 305.072 233.258 303.941 232.722 302.769C231.663 300.394 231.357 297.873 231.432 295.533C231.561 290.805 233.317 286.255 236.031 282.572C236.715 281.653 237.443 280.766 238.236 279.945L240.433 277.735L241.457 276.701L242.434 275.614C243.077 274.881 243.745 274.175 244.342 273.395C246.83 270.382 249.087 267.153 251.253 263.845C255.651 257.263 259.267 250.085 262.538 242.745C264.15 239.06 265.707 235.336 267.11 231.548C268.584 227.783 269.89 223.95 271.232 220.122L271.237 220.106C271.467 219.453 272.18 219.109 272.834 219.339C273.443 219.552 273.779 220.193 273.638 220.808H273.64Z" fill="#000072"/>
<path d="M255.108 266.108C254.496 266.108 253.88 265.917 253.353 265.519C224.132 243.469 209.024 211.453 211.905 177.682C212.043 176.076 213.462 174.886 215.06 175.022C216.665 175.16 217.856 176.572 217.72 178.18C215.013 209.909 229.282 240.044 256.868 260.859C258.154 261.829 258.41 263.66 257.439 264.947C256.866 265.707 255.992 266.108 255.107 266.108H255.108Z" fill="#000072"/>
<path d="M239.584 285.726C238.654 285.726 237.738 285.282 237.174 284.457C225.493 267.402 235.843 247.908 236.289 247.085C237.058 245.668 238.831 245.145 240.246 245.915C241.662 246.684 242.187 248.455 241.418 249.87C241.28 250.128 232.376 267.123 241.988 281.158C242.9 282.488 242.559 284.305 241.23 285.216C240.727 285.561 240.151 285.726 239.584 285.726Z" fill="#000072"/>
<path d="M310.903 312.833H262.217C260.605 312.833 259.299 311.527 259.299 309.914C259.299 308.301 260.605 306.995 262.217 306.995H310.904C312.517 306.995 313.823 308.301 313.823 309.914C313.823 311.527 312.517 312.833 310.904 312.833H310.903Z" fill="#000072"/>
<path d="M297.055 287.263L294.315 292.418L309.53 300.511L312.27 295.355L297.055 287.263Z" fill="#000072"/>
<path d="M322.255 279.029C323.233 278.726 324.025 278.535 324.898 278.343C325.751 278.151 326.603 277.999 327.454 277.861C328.305 277.708 329.163 277.63 330.014 277.513C330.871 277.427 331.729 277.372 332.583 277.3C336.01 277.106 339.455 277.286 342.836 277.839C344.533 278.07 346.19 278.531 347.845 278.947C348.662 279.2 349.466 279.497 350.274 279.769C350.676 279.915 351.084 280.038 351.478 280.199L352.646 280.726C355.812 282.015 358.639 283.961 361.328 285.974C361.88 286.386 361.992 287.169 361.58 287.723C361.19 288.244 360.471 288.373 359.929 288.04L359.835 287.982C357.155 286.323 354.423 284.755 351.432 283.834L350.333 283.443C349.963 283.327 349.579 283.248 349.203 283.147C348.447 282.963 347.7 282.755 346.944 282.588C345.407 282.345 343.888 282.051 342.333 281.977C339.244 281.739 336.132 281.843 333.071 282.28L330.786 282.667C330.034 282.839 329.274 282.972 328.535 283.173C327.789 283.359 327.051 283.558 326.327 283.787C325.622 284.002 324.849 284.273 324.287 284.502L324.226 284.527C322.732 285.137 321.026 284.42 320.417 282.925C319.808 281.431 320.525 279.725 322.019 279.115C322.096 279.083 322.178 279.054 322.257 279.029H322.255Z" fill="#000072"/>
<path d="M247.577 297.826C247.246 298.64 246.954 299.619 246.769 300.527C246.581 301.452 246.486 302.375 246.493 303.26C246.518 304.142 246.667 304.971 246.914 305.708C247.17 306.445 247.59 307.048 248.036 307.588L248.055 307.613C248.942 308.681 248.795 310.267 247.726 311.154C246.656 312.041 245.073 311.894 244.186 310.824C244.082 310.701 243.987 310.557 243.912 310.421C243.254 309.212 242.792 307.916 242.633 306.617C242.482 305.325 242.547 304.068 242.76 302.889C242.993 301.715 243.349 300.61 243.794 299.567C244.252 298.511 244.745 297.565 245.415 296.567C245.8 295.993 246.578 295.839 247.151 296.226C247.652 296.563 247.832 297.197 247.613 297.737L247.575 297.828L247.577 297.826Z" fill="#000072"/>
<path d="M265.223 298.55C264.892 299.364 264.6 300.343 264.415 301.251C264.227 302.176 264.132 303.099 264.139 303.984C264.164 304.866 264.313 305.695 264.56 306.432C264.817 307.169 265.234 307.772 265.682 308.312L265.702 308.337C266.588 309.405 266.441 310.991 265.372 311.878C264.302 312.765 262.717 312.618 261.83 311.548C261.726 311.425 261.631 311.281 261.556 311.145C260.899 309.936 260.436 308.64 260.277 307.341C260.126 306.049 260.191 304.792 260.404 303.613C260.637 302.439 260.994 301.334 261.438 300.291C261.896 299.235 262.389 298.289 263.059 297.291C263.444 296.717 264.222 296.563 264.795 296.95C265.297 297.287 265.476 297.921 265.257 298.461L265.22 298.552L265.223 298.55Z" fill="#000072"/>
<path d="M330.229 295.541C329.437 296.403 328.665 297.531 328.114 298.629C327.551 299.748 327.173 300.92 327.012 302.075C326.906 302.652 326.931 303.23 326.92 303.794C327.006 304.359 327.015 304.916 327.2 305.455C327.431 306.545 328.008 307.554 328.585 308.529L328.672 308.679C329.378 309.873 328.984 311.414 327.789 312.122C326.596 312.828 325.055 312.434 324.348 311.238C324.29 311.142 324.237 311.03 324.194 310.93C323.556 309.41 322.992 307.832 322.875 306.142C322.75 305.314 322.829 304.466 322.857 303.642C322.981 302.819 323.096 302.002 323.355 301.23C323.823 299.674 324.554 298.253 325.446 296.995C326.361 295.728 327.338 294.653 328.606 293.636C329.144 293.206 329.93 293.292 330.36 293.83C330.751 294.317 330.717 295.009 330.306 295.455L330.227 295.541H330.229Z" fill="#000072"/>
<path d="M346.767 297.052C346.267 297.862 345.779 298.921 345.493 299.921C345.185 300.937 345.031 301.98 345.022 302.997C345.011 304.013 345.124 305.011 345.418 305.959C345.659 306.914 346.122 307.805 346.593 308.667L346.647 308.765C347.311 309.984 346.863 311.513 345.645 312.177C344.427 312.844 342.899 312.394 342.234 311.176C342.168 311.056 342.109 310.918 342.064 310.792C341.607 309.466 341.215 308.115 341.105 306.708C340.946 305.317 341.036 303.903 341.295 302.561C341.553 301.213 341.998 299.927 342.6 298.742C342.902 298.151 343.232 297.579 343.603 297.034C343.983 296.477 344.35 295.993 344.864 295.434C345.33 294.927 346.12 294.893 346.627 295.361C347.075 295.773 347.154 296.436 346.844 296.934L346.768 297.056L346.767 297.052Z" fill="#000072"/>
<g opacity="0.3">
<path opacity="0.3" d="M356.315 224.036C356.315 224.036 321.464 245.811 341.926 279.565C341.926 279.565 315.428 286.931 325.498 300.507L327.879 296.242C327.879 296.242 333.393 306.496 343.234 302.16L343.06 310.084L310.903 309.005C309.392 296.128 312.995 286.352 323.269 280.619C314.993 253.422 321.428 232.582 356.313 224.036H356.315Z" fill="#000072"/>
</g>
<g opacity="0.3">
<path opacity="0.3" d="M261.805 232.985L271.395 224.036C271.395 224.036 262.9 251.091 254.136 262.451C227.231 241.7 211.957 211.392 214.816 177.931L224.738 170.225C239.537 191.701 266.649 200.808 300.967 202.676C300.967 202.676 266.725 213.26 234.793 199.348C234.793 199.64 234.85 217.382 248.851 232.571C252.278 236.29 258.109 236.435 261.805 232.985Z" fill="#000072"/>
</g>
<g opacity="0.3">
<path opacity="0.3" d="M309.127 263.189C309.127 263.189 314.864 269.673 318.615 264.667L322.605 282.142C322.605 282.142 313.465 290.977 310.204 296.24L310.903 309.004L272.438 309.912C290.345 297.323 303.941 282.466 309.127 263.187V263.189Z" fill="#000072"/>
</g>
<g opacity="0.3">
<path opacity="0.3" d="M251.035 288.296C243.439 296.086 244.497 296.429 245.531 299.314V300.674C245.531 300.674 251.534 304.618 263.457 299.323C263.34 299.59 260.981 305.02 262.215 309.914C244.607 310.973 233.768 307.195 234.359 295.276C234.626 289.839 237.262 284.834 241.214 281.106C254.245 268.787 264.326 248.446 272.061 221.758C272.061 221.758 282.624 234.517 275.68 248.48C268.727 262.442 258.631 280.515 251.035 288.296Z" fill="#000072"/>
</g>
<g opacity="0.3">
<path opacity="0.3" d="M235.035 300.674C235.243 301.299 235.51 301.884 235.818 302.443C235.501 301.893 235.243 301.299 235.035 300.674Z" fill="#000072"/>
</g>
<path d="M270.736 117.943C275.004 109.664 273.355 100.317 267.052 97.0654C260.75 93.8142 252.181 97.8903 247.913 106.17C243.644 114.449 245.293 123.796 251.596 127.048C257.898 130.299 266.468 126.223 270.736 117.943Z" fill="#000072"/>
<path d="M266.873 112.456C268.119 110.037 267.638 107.307 265.797 106.358C263.957 105.408 261.454 106.599 260.208 109.017C258.961 111.435 259.442 114.165 261.283 115.115C263.124 116.064 265.626 114.874 266.873 112.456Z" fill="white"/>
<path d="M332.451 134.743C330.115 134.27 327.698 133.87 325.364 133.673C323.017 133.465 320.704 133.435 318.447 133.593C317.313 133.646 316.207 133.826 315.1 133.971C314.552 134.069 314.013 134.2 313.468 134.309C313.198 134.372 312.923 134.413 312.655 134.48L311.861 134.714C309.709 135.243 307.716 136.207 305.731 137.195L304.351 131.374C304.577 131.394 304.715 131.413 304.865 131.433C305.021 131.453 305.166 131.474 305.304 131.499C305.587 131.55 305.87 131.6 306.141 131.663C306.691 131.774 307.221 131.919 307.753 132.059C308.81 132.351 309.833 132.731 310.835 133.143C312.836 133.98 314.724 135.076 316.435 136.392C318.137 137.713 319.701 139.213 320.94 140.944C322.259 142.605 323.201 144.517 323.963 146.422C324.183 146.974 323.914 147.601 323.362 147.822C322.95 147.987 322.497 147.879 322.203 147.583L322.112 147.492C321.428 146.807 320.845 146.078 320.17 145.438C319.484 144.806 318.85 144.153 318.124 143.596C316.729 142.435 315.231 141.453 313.669 140.627C312.121 139.779 310.487 139.112 308.819 138.603C307.986 138.345 307.139 138.143 306.3 137.96C305.879 137.881 305.458 137.795 305.044 137.743C304.835 137.707 304.634 137.689 304.434 137.668C304.331 137.654 304.235 137.643 304.147 137.637L303.932 137.619L303.85 137.612C302.135 137.478 300.852 135.978 300.987 134.263C301.071 133.2 301.694 132.295 302.551 131.799C304.953 130.431 307.481 129.172 310.2 128.539C310.87 128.347 311.542 128.166 312.232 128.084C312.918 127.978 313.601 127.856 314.287 127.772C315.666 127.691 317.04 127.571 318.407 127.679C321.139 127.802 323.819 128.301 326.351 129.159C328.884 130.048 331.258 131.17 333.432 132.838C333.907 133.202 333.997 133.883 333.633 134.358C333.373 134.697 332.952 134.84 332.56 134.761L332.452 134.74L332.451 134.743Z" fill="#000072"/>
</g>
<g clip-path="url(#clip1_62_934)">
<path d="M199.108 304.35C198.469 307.656 195.475 309.978 192.117 309.978H174.976C172.99 309.978 171.384 308.372 171.384 306.382L155.863 271.262L153.751 266.475L192.224 249.922L192.615 290.205C197.744 293.778 200.039 299.573 199.108 304.352V304.35Z" fill="#A09A9A"/>
<path d="M192.119 310.34H174.978C172.825 310.34 171.068 308.606 171.027 306.459L153.276 266.285L192.583 249.375L192.978 290.014C197.867 293.499 200.47 299.263 199.466 304.418C198.801 307.847 195.711 310.34 192.121 310.34H192.119ZM154.23 266.661L171.746 306.38C171.746 308.164 173.195 309.615 174.978 309.615H192.119C195.366 309.615 198.156 307.372 198.757 304.28C199.718 299.349 197.167 293.81 192.412 290.5L192.258 290.393L191.871 250.466L154.23 266.661Z" fill="#000072"/>
<g opacity="0.55">
<path opacity="0.55" d="M199.108 304.35C198.469 307.656 195.475 309.978 192.117 309.978H189.532C191.327 309.012 192.683 307.314 193.099 305.216C194.023 300.444 191.728 294.642 186.599 291.069L186.226 252.502L192.228 249.92L192.619 290.203C197.747 293.776 200.043 299.571 199.112 304.35H199.108Z" fill="white"/>
</g>
<g opacity="0.3">
<path opacity="0.3" d="M178.002 308.379C177.478 308.937 176.971 309.47 176.473 309.978H174.976C172.99 309.978 171.384 308.372 171.384 306.382L155.863 271.262C156.402 270.071 157.176 269.182 158.324 268.699L177.319 273.935V289.93C177.319 289.93 185.483 300.471 178.002 308.381V308.379Z" fill="#000072"/>
</g>
<path d="M58.1519 286.015C13.9595 289.686 -6.58259 254.152 7.06809 213.969V213.96C7.96659 211.312 9.01334 208.648 10.2101 205.966C21.3422 185.351 35.1751 189.856 39.1906 201.928V201.937C41.0769 207.591 40.8125 214.901 37.0953 222.07C35.8235 224.752 34.7928 227.374 33.9943 229.929C28.7981 246.482 33.3209 260.054 45.4747 265.782H45.4836C48.2345 267.09 51.3944 267.981 54.9116 268.414L58.1537 286.015H58.1519Z" fill="#A09A9A"/>
<path d="M52.0518 286.634C35.2198 286.634 21.3279 280.573 12.502 269.25C1.62715 255.295 -0.484224 235.125 6.7073 213.908L6.72695 213.842C7.62366 211.196 8.6847 208.496 9.8815 205.818C17.0837 192.478 24.4414 191.049 28.1926 191.367C33.1888 191.806 37.5348 195.808 39.5318 201.814L39.5497 201.878C41.6343 208.179 40.8572 215.595 37.4151 222.236C36.1718 224.855 35.1358 227.484 34.3391 230.037C29.2733 246.176 33.571 259.726 45.5569 265.421L45.6391 265.457C48.3756 266.758 51.5105 267.632 54.9545 268.056L55.2171 268.09L58.5806 286.344L58.1841 286.378C56.1013 286.552 54.056 286.638 52.0536 286.638L52.0518 286.634ZM7.42717 214.019L7.40752 214.085C0.273155 235.091 2.3363 255.035 13.0682 268.806C22.723 281.194 38.569 287.185 57.7232 285.688L54.6008 268.74C51.2122 268.298 48.1184 267.427 45.3979 266.144L45.3193 266.11C32.928 260.269 28.4551 246.364 33.6478 229.822C34.4552 227.238 35.5038 224.576 36.7667 221.916C40.1356 215.416 40.8894 208.181 38.8441 202.052L38.8262 201.987C36.9131 196.289 32.8172 192.498 28.1265 192.088C21.9621 191.548 15.7083 196.54 10.5246 206.14C9.35813 208.755 8.31137 211.414 7.42538 214.021L7.42717 214.019Z" fill="#000072"/>
<path d="M37.0936 222.07C35.8218 224.752 34.7911 227.374 33.9927 229.929C18.2806 239.197 9.30282 233.876 7.06641 213.967V213.958C7.9649 211.31 9.01166 208.646 10.2085 205.964C26.56 175.682 48.7312 199.595 37.0936 222.068V222.07Z" fill="white"/>
<path d="M164.809 284.634C164.725 284.684 164.643 284.741 164.559 284.791L165.53 288.679C175.432 291.177 180.212 305.191 164.559 309.978H148.073C140.799 309.046 135.819 302.893 133.351 295.149L132.736 295.431L132.363 295.598C132.513 295.823 132.645 296.047 132.77 296.272C136.087 302.283 132.263 309.976 126.32 309.976H91.6787C91.5697 309.967 91.4715 309.96 91.3625 309.951C72.1423 308.577 56.0069 292.649 54.9173 272.2C54.4189 262.782 57.427 253.533 62.9483 245.89C70.7383 235.1 79.7982 226.365 90.5891 220.402L112.362 197.847L113.509 196.665L193.448 187.315C196.89 195.958 198.594 205 198.851 213.992C199.675 243 185.317 271.518 164.809 284.632V284.634Z" fill="#A09A9A"/>
<path d="M164.614 310.34H148.075C141.364 309.483 135.951 304.137 133.134 295.648L132.891 295.759C132.959 295.871 133.024 295.984 133.086 296.097C134.835 299.265 134.781 303.164 132.95 306.271C131.428 308.856 129.012 310.338 126.32 310.338L91.3374 310.313C71.4509 308.89 55.6388 292.515 54.5581 272.22C54.0705 263.009 56.9464 253.584 62.6571 245.679C70.9293 234.218 79.9946 225.854 90.3675 220.113L113.339 196.319L193.68 186.923L193.782 187.181C197.115 195.55 198.941 204.567 199.212 213.981C200.018 242.365 185.951 271.542 165.003 284.936L164.973 284.956L165.83 288.384C171.059 289.796 174.919 294.317 175.04 299.21C175.164 304.217 171.382 308.268 164.666 310.324L164.614 310.34ZM133.572 294.649L133.695 295.038C136.385 303.473 141.642 308.788 148.119 309.619L164.505 309.615C170.857 307.658 174.431 303.874 174.317 299.226C174.203 294.585 170.469 290.297 165.443 289.028L165.234 288.976L164.144 284.618L164.614 284.326C185.358 271.062 199.287 242.143 198.489 214.003C198.224 204.769 196.449 195.924 193.212 187.707L113.675 197.01L112.617 198.1L90.7605 220.721C80.4608 226.41 71.458 234.713 63.2376 246.103C57.6234 253.876 54.7957 263.136 55.2744 272.182C56.3355 292.114 71.8599 308.196 91.3857 309.592L91.7018 309.617H126.316C128.747 309.617 130.937 308.264 132.325 305.904C134.028 303.015 134.076 299.39 132.45 296.447C132.331 296.233 132.202 296.014 132.059 295.8L131.821 295.444L133.568 294.651L133.572 294.649Z" fill="#000072"/>
<path d="M160.798 75.9874C171.512 66.3318 182.839 58.7586 195.139 54.5077C199.56 52.9798 204.394 55.1536 206.118 59.5082C209.967 69.2337 216.005 87.4054 215.876 105.411" fill="#A09A9A"/>
<path d="M216.235 105.413L215.514 105.407C215.642 87.3142 209.471 68.9671 205.782 59.6406C204.137 55.4828 199.514 53.3788 195.257 54.8494C183.834 58.7979 172.643 65.8004 161.039 76.2558L160.557 75.7191C172.232 65.1957 183.505 58.1467 195.021 54.166C199.644 52.5666 204.664 54.8548 206.454 59.374C210.164 68.7488 216.367 87.1961 216.237 105.413H216.235Z" fill="#000072"/>
<g opacity="0.55">
<path opacity="0.55" d="M86.7825 251.379C104.799 254.703 115.888 265.598 115.55 288.978C115.536 290.012 115.777 291.035 116.226 291.968L116.315 292.154C116.892 293.354 118.049 294.17 119.373 294.295C123.681 294.703 133.208 296.301 134.01 302.484C136.448 301.16 130.712 288.436 121.191 289.511C121.311 264.493 106.464 249.64 86.7825 251.377V251.379Z" fill="white"/>
</g>
<g opacity="0.55">
<path opacity="0.55" d="M215.876 105.411L210.006 102.271C209.108 86.0672 203.855 70.4306 200.38 61.6641C198.751 57.542 194.344 55.3772 190.131 56.4435C191.776 55.735 193.448 55.0856 195.136 54.5041C199.559 52.9798 204.396 55.1536 206.118 59.5082C209.967 69.2337 216.001 87.4018 215.878 105.411H215.876Z" fill="white"/>
</g>
<g opacity="0.55">
<path opacity="0.55" d="M164.809 284.634C164.725 284.684 164.642 284.741 164.558 284.791L165.53 288.679C175.432 291.177 180.212 305.191 164.558 309.978H159.355C172.74 304.683 167.951 291.719 158.466 289.329L157.494 285.441L151.211 224.197C151.12 223.31 152.389 223.056 152.646 223.909L156.115 235.407L163.197 281.319C180.746 266.965 192.535 241.004 191.787 214.643C191.529 205.709 189.85 196.726 186.449 188.133L193.45 187.317C196.892 195.96 198.596 205.002 198.853 213.994C199.677 243.002 185.319 271.52 164.81 284.634H164.809Z" fill="white"/>
</g>
<path d="M164.808 284.634L159.18 253.32C165.971 248.849 171.732 242.412 175.415 232.064C180.204 220.148 187.685 213.488 198.849 213.996C199.673 243.004 185.315 271.522 164.807 284.636L164.808 284.634Z" fill="white"/>
<path d="M227.864 155.734C223.625 167.606 216.616 174.169 206.075 180.597C205.825 180.747 205.577 180.905 205.319 181.046C194.986 187.242 183.788 191.895 172.141 194.967C99.6757 214.076 52.5324 173.652 80.4554 110.631C74.9359 102.396 72.3993 93.5706 71.951 83.0293C71.7688 78.9251 74.8698 75.4275 78.9514 75.0356C98.8111 73.1213 119.187 73.4863 132.695 78.0252C187.196 63.6034 242.786 113.936 227.864 155.734Z" fill="#A09A9A"/>
<path d="M137.675 200.093C114.589 200.093 95.4744 192.877 83.7404 179.071C69.3574 162.15 68.0463 137.865 80.0446 110.667C74.7412 102.69 72.0529 93.9051 71.5902 83.0454C71.4009 78.7641 74.618 75.0893 78.9157 74.676C101.373 72.513 120.468 73.5668 132.707 77.6495C161.252 70.1389 193.089 79.9002 213.84 102.534C228.893 118.952 234.262 138.886 228.205 155.858C223.784 168.238 216.237 174.825 206.264 180.907L206.039 181.044C205.861 181.155 205.68 181.264 205.494 181.366C195.259 187.503 184.065 192.199 172.236 195.319C160.084 198.524 148.448 200.094 137.679 200.094L137.675 200.093ZM100.51 74.2985C93.8168 74.2985 86.5985 74.6617 78.9854 75.3953C75.0699 75.771 72.1386 79.1166 72.3119 83.0132C72.7727 93.8103 75.4557 102.521 80.7556 110.429L80.8663 110.595L80.7859 110.778C68.8215 137.781 70.0665 161.869 84.2906 178.604C101.316 198.633 134.122 204.621 172.05 194.62C183.814 191.518 194.945 186.846 205.134 180.738C205.319 180.635 205.491 180.531 205.661 180.427L205.889 180.287C215.728 174.287 223.173 167.796 227.525 155.614C233.491 138.901 228.177 119.24 213.309 103.024C192.712 80.5586 161.106 70.8832 132.788 78.3777L132.684 78.4063L132.582 78.3705C124.564 75.6761 113.535 74.3021 100.512 74.3021L100.51 74.2985Z" fill="#000072"/>
<g opacity="0.55">
<path opacity="0.55" d="M227.864 155.734C226.26 160.221 224.264 163.944 221.837 167.191C222.718 165.469 223.507 163.619 224.223 161.622C239.146 119.824 183.555 69.4913 129.054 83.9131C115.545 79.376 95.1707 79.0092 75.3092 80.9235C74.0873 81.0398 72.9477 81.4406 71.967 82.0471C72.2743 78.383 75.2002 75.3953 78.9496 75.0357C98.8093 73.1214 119.185 73.4863 132.693 78.0252C187.194 63.6034 242.785 113.936 227.862 155.734H227.864Z" fill="white"/>
</g>
<path d="M137.702 202.637C113.846 202.637 94.0292 195.112 81.8004 180.724C66.9761 163.284 65.3488 138.536 77.165 110.907C72.092 102.833 69.5037 93.9677 69.0411 83.1581C68.7999 77.5189 73.0316 72.6759 78.6744 72.1338C91.7053 70.8814 115.87 69.6165 132.788 74.9891C162.049 67.602 194.511 77.6799 215.715 100.809C231.42 117.938 236.984 138.838 230.604 156.716C225.931 169.807 218.023 176.725 207.588 183.086C196.942 189.573 185.265 194.518 172.882 197.783C160.53 201.041 148.687 202.637 137.702 202.637ZM100.537 76.8498C93.9238 76.8498 86.7769 77.2094 79.2282 77.934C76.6667 78.1791 74.7446 80.3636 74.8536 82.9058C75.2948 93.2056 77.842 101.5 82.8739 109.009C83.4313 109.841 83.5224 110.9 83.1169 111.814C71.5722 137.868 72.6779 160.999 86.2321 176.944C102.607 196.209 134.444 201.891 171.4 192.144C183.239 189.022 194.396 184.299 204.562 178.103C214.208 172.224 221.012 166.266 225.124 154.752C230.765 138.947 225.645 120.255 211.428 104.749C191.463 82.972 160.848 73.5883 133.434 80.8377C132.886 80.9844 132.305 80.9647 131.768 80.784C123.999 78.1773 113.26 76.848 100.537 76.848V76.8498Z" fill="#000072"/>
<path d="M215.874 108.323H215.853C214.247 108.313 212.952 106.998 212.965 105.387C213.091 87.7256 207.034 69.7328 203.412 60.5798C202.27 57.6941 199.053 56.2342 196.088 57.2611C184.995 61.0951 174.088 67.9294 162.744 78.1522C161.549 79.2275 159.711 79.1309 158.633 77.934C157.558 76.7389 157.656 74.8961 158.85 73.8191C170.784 63.0631 182.343 55.8441 194.187 51.7507C200.104 49.7076 206.529 52.6417 208.821 58.4312C212.598 67.9795 218.917 86.781 218.783 105.429C218.77 107.032 217.47 108.322 215.873 108.322L215.874 108.323Z" fill="#000072"/>
<path d="M178.925 142.611L174.776 142.868L174.974 146.069L179.123 145.812L178.925 142.611Z" fill="#000072"/>
<path d="M183.589 160.314C180.763 167.649 172.857 167.116 168.534 161.488V161.479C167.304 159.863 166.357 157.833 165.916 155.451L176.224 150.558L184.604 152.911C184.713 155.942 184.322 158.389 183.589 160.312V160.314Z" fill="#000072"/>
<path d="M183.589 160.314C180.763 167.649 172.857 167.116 168.535 161.488V161.479C170.705 156.051 181.221 155.21 183.582 160.305L183.591 160.314H183.589Z" fill="#EA5454"/>
<path d="M176.396 166.182C173.416 166.182 170.362 164.551 168.204 161.742L168.118 161.629L168.149 161.325C169.433 158.112 173.308 156.586 176.578 156.498C180.02 156.419 182.827 157.772 183.929 160.067L184.064 160.21L183.979 160.466C182.741 163.679 180.454 165.681 177.541 166.104C177.162 166.157 176.78 166.184 176.398 166.184L176.396 166.182ZM169.01 161.422C171.257 164.232 174.46 165.708 177.421 165.277C179.972 164.907 181.996 163.155 183.134 160.336C181.96 158.026 179.02 157.271 176.601 157.33C173.679 157.409 170.242 158.706 169.012 161.422H169.01Z" fill="#000072"/>
<path d="M175.644 133.601C175.644 133.601 167.677 133.948 167.817 138.528C167.918 141.901 172.38 143.769 174.724 144.518C175.642 144.812 176.63 144.719 177.475 144.252C179.227 143.286 182.137 141.273 182.727 138.332C183.012 136.908 182.341 135.449 181.056 134.779C179.974 134.213 178.261 133.666 175.646 133.601H175.644Z" fill="#000072"/>
<path d="M193.819 145.971C193.655 147.061 193.305 148.139 192.814 149.175C192.297 150.197 191.619 151.163 190.79 152.006C189.125 153.689 186.831 154.807 184.373 155.036C181.941 155.271 179.238 154.596 177.282 152.813C176.308 151.943 175.528 150.862 175.015 149.707C174.515 148.544 174.231 147.336 174.158 146.155V146.145L178.293 146.118C178.214 146.773 178.114 147.431 178 148.084C177.82 148.723 177.598 149.358 177.369 149.984C177.08 150.583 176.737 151.159 176.412 151.741C176.026 152.279 175.605 152.795 175.192 153.312C173.363 155.219 171.012 156.554 168.486 157.078C165.978 157.607 163.272 157.446 160.921 156.367C158.553 155.333 156.659 153.448 155.513 151.311C155.186 150.701 155.414 149.943 156.022 149.615C156.558 149.327 157.21 149.469 157.581 149.925L157.61 149.961C158.864 151.496 160.423 152.626 162.158 153.161C163.892 153.68 165.768 153.696 167.504 153.161C169.226 152.623 170.841 151.685 171.984 150.358C173.168 149.068 173.883 147.467 174.152 145.733L174.174 145.597C174.351 144.463 175.412 143.686 176.544 143.864C177.496 144.012 178.196 144.79 178.289 145.708V145.715C178.568 147.295 179.183 148.63 180.188 149.521C181.185 150.415 182.596 150.891 184.091 150.852C185.585 150.819 187.117 150.276 188.396 149.315C189.689 148.358 190.688 146.95 191.413 145.314L191.431 145.273C191.713 144.64 192.455 144.354 193.087 144.635C193.616 144.869 193.9 145.425 193.817 145.971H193.819Z" fill="#000072"/>
<path d="M176.401 167.848C172.907 167.848 169.362 165.98 166.888 162.758C166.854 162.713 166.821 162.669 166.791 162.62C165.344 160.681 164.337 158.335 163.872 155.831L167.959 155.072C168.313 156.99 169.085 158.768 170.187 160.216C170.214 160.25 170.239 160.286 170.262 160.32C172.118 162.674 174.82 163.966 177.184 163.628C179.193 163.336 180.738 161.93 181.651 159.563C182.324 157.793 182.619 155.577 182.526 152.984L186.681 152.836C186.794 155.988 186.406 158.752 185.531 161.053C184.086 164.807 181.26 167.241 177.778 167.748C177.323 167.814 176.862 167.846 176.401 167.846V167.848Z" fill="#000072"/>
<path d="M80.4573 113.132C79.966 113.132 79.4695 112.986 79.0336 112.685C77.9029 111.896 77.6242 110.34 78.412 109.207C83.2063 102.312 88.1757 97.0593 93.5221 93.2557C78.6871 83.6322 74.2571 85.5913 73.8713 85.8042C73.0442 86.7398 71.6295 86.9277 70.581 86.196C69.4503 85.4088 69.1716 83.8505 69.9594 82.718C71.2687 80.8377 77.2634 75.889 99.4721 91.2322C100.174 91.7171 100.58 92.5275 100.549 93.3809C100.517 94.2343 100.053 95.0126 99.3185 95.4437C93.3434 98.9486 87.8453 104.386 82.5079 112.063C82.0238 112.76 81.2468 113.134 80.4591 113.134L80.4573 113.132ZM74.0481 85.5805C74.0481 85.5805 74.0481 85.5823 74.0463 85.5841C74.0463 85.5841 74.0463 85.5823 74.0481 85.5805ZM74.0517 85.5769C74.0517 85.5769 74.0517 85.5787 74.0499 85.5805C74.0499 85.5805 74.0499 85.5787 74.0517 85.5769ZM74.0553 85.5734C74.0553 85.5734 74.0535 85.5752 74.0517 85.5769C74.0517 85.5769 74.0517 85.5752 74.0553 85.5734Z" fill="#000072"/>
<g opacity="0.3">
<path opacity="0.3" d="M98.0555 93.2879C91.3963 97.1935 85.6267 103.205 80.4572 110.631L72.0117 84.1457C72.0117 84.1457 76.1684 78.1594 98.0573 93.2879H98.0555Z" fill="#000072"/>
</g>
<path d="M99.5739 91.3056L110.883 101.256C111.504 101.804 111.567 102.752 111.02 103.377C110.518 103.949 109.677 104.047 109.061 103.634L96.5372 95.2684C95.3886 94.5009 95.0796 92.9462 95.8441 91.7976C96.6104 90.6472 98.1627 90.3377 99.3095 91.1034C99.3988 91.1625 99.4935 91.2376 99.5721 91.3056H99.5739Z" fill="#000072"/>
<path d="M194.764 90.0443C193.651 90.0443 192.639 89.2929 192.349 88.164C189.254 76.025 189.84 66.7772 194.093 60.6747C198.09 54.9371 203.86 54.2841 204.105 54.259C205.478 54.1213 206.7 55.116 206.84 56.49C206.979 57.8551 205.993 59.077 204.633 59.2273C204.43 59.2524 200.748 59.7712 198.115 63.6338C194.843 68.4339 194.521 76.4884 197.183 86.9277C197.524 88.2641 196.719 89.6256 195.384 89.9656C195.177 90.0192 194.97 90.0443 194.766 90.0443H194.764Z" fill="#000072"/>
<path d="M89.601 155.661C86.7984 155.34 84.0279 155.065 81.252 154.924C78.4779 154.791 75.7056 154.754 72.9315 154.863C70.1575 154.956 67.3852 155.178 64.6075 155.462C61.8281 155.756 59.0486 156.135 56.2263 156.482H56.2192C55.5315 156.568 54.9045 156.078 54.8188 155.387C54.7473 154.804 55.0885 154.263 55.6119 154.06C58.3359 153.004 61.1654 152.235 64.0431 151.684C66.9207 151.124 69.852 150.805 72.794 150.709C75.736 150.628 78.6923 150.753 81.611 151.167C84.528 151.571 87.4146 152.226 90.178 153.229C90.83 153.466 91.1658 154.187 90.93 154.84C90.7282 155.398 90.1726 155.725 89.6082 155.661H89.5992H89.601Z" fill="#000072"/>
<path d="M91.6749 165.782C89.0026 166.086 86.375 166.476 83.776 167.025C81.1788 167.572 78.6155 168.251 76.0772 169.045C73.546 169.859 71.031 170.743 68.532 171.716C66.0187 172.661 63.5304 173.697 60.9635 174.65H60.9564C60.3044 174.895 59.5792 174.562 59.338 173.909C59.138 173.371 59.3309 172.782 59.7703 172.457C62.0246 170.786 64.4628 169.387 66.9868 168.147C69.5233 166.936 72.1527 165.885 74.8714 165.093C77.5812 164.279 80.3678 163.676 83.1901 163.354C86.0106 163.032 88.8687 162.962 91.6856 163.286C92.3733 163.365 92.8681 163.987 92.7895 164.678C92.7216 165.27 92.2536 165.719 91.6856 165.783H91.6749V165.782Z" fill="#000072"/>
<path d="M98.0788 174.353C96.2425 175.622 94.4491 176.824 92.7539 178.157C91.0534 179.477 89.4171 180.864 87.8666 182.368C86.3269 183.878 84.8604 185.483 83.4689 187.177C82.0648 188.863 80.7466 190.639 79.3962 192.435L79.3908 192.443C78.9728 192.997 78.1851 193.108 77.6295 192.689C77.1651 192.339 77.0133 191.727 77.2205 191.212C78.0957 189.043 79.2175 186.972 80.5072 184.993C81.8076 183.023 83.2884 181.148 84.9675 179.448C86.6341 177.74 88.4883 176.189 90.5246 174.922C92.5645 173.666 94.7545 172.641 97.0713 172.068C97.7501 171.9 98.436 172.315 98.6039 172.997C98.7325 173.523 98.5146 174.053 98.0966 174.342L98.0805 174.353H98.0788Z" fill="#000072"/>
<path d="M224.813 119.233L216.698 125.243C216.142 125.654 215.358 125.536 214.947 124.98C214.577 124.479 214.636 123.795 215.054 123.362L222.074 116.099C222.875 115.27 224.197 115.249 225.024 116.05C225.851 116.852 225.872 118.176 225.072 119.004C224.993 119.085 224.9 119.165 224.813 119.231V119.233Z" fill="#000072"/>
<path d="M217.825 134.346L228.117 130.42C229.193 130.011 230.397 130.551 230.807 131.628C231.217 132.705 230.677 133.911 229.602 134.322C229.505 134.358 229.398 134.39 229.3 134.412L218.536 136.741C217.861 136.888 217.196 136.457 217.05 135.78C216.917 135.167 217.259 134.562 217.827 134.346H217.825Z" fill="#000072"/>
<path d="M221.217 144.685L229.588 144.713C230.742 144.717 231.672 145.658 231.669 146.812C231.665 147.966 230.725 148.9 229.573 148.896C229.436 148.896 229.291 148.878 229.161 148.853L220.962 147.168C220.283 147.028 219.847 146.365 219.986 145.687C220.108 145.091 220.633 144.681 221.219 144.683L221.217 144.685Z" fill="#000072"/>
<path d="M196.15 186.242C199.641 195.053 201.477 204.476 201.74 213.903C202.006 223.335 200.736 232.774 198.114 241.805C195.486 250.835 191.515 259.489 186.206 267.3C180.898 275.089 174.213 282.09 166.111 287.255L167.381 284.083L168.351 287.969L166.239 285.849C169.31 286.624 172.109 288.345 174.19 290.753C176.26 293.139 177.688 296.335 177.575 299.797C177.527 301.509 177.082 303.232 176.305 304.745C175.526 306.259 174.453 307.554 173.265 308.604C170.862 310.697 168.115 311.91 165.407 312.764C165.137 312.85 164.864 312.891 164.594 312.891H148.069C147.959 312.891 147.848 312.884 147.739 312.871L147.698 312.866C144.131 312.436 140.692 310.789 138.1 308.445C135.469 306.117 133.558 303.249 132.141 300.274C130.716 297.288 129.787 294.152 129.21 290.98C129.064 290.186 128.946 289.389 128.846 288.592C128.753 287.837 128.665 287.167 128.554 286.463C128.328 285.078 128.083 283.72 127.727 282.412L127.715 282.366C127.692 282.283 127.674 282.197 127.66 282.115C126.65 275.975 125.654 269.833 124.796 263.668C124.339 260.591 123.98 257.495 123.567 254.409C123.356 252.867 123.183 251.318 123.012 249.77C122.835 248.223 122.658 246.675 122.517 245.12C122.429 244.156 123.137 243.301 124.101 243.213C124.969 243.133 125.748 243.703 125.957 244.523C126.347 246.033 126.7 247.552 127.056 249.069C127.415 250.584 127.774 252.101 128.094 253.624C128.744 256.669 129.446 259.703 130.051 262.755C131.318 268.851 132.447 274.968 133.561 281.09L133.495 280.793C133.945 282.371 134.301 283.954 134.535 285.527C134.656 286.303 134.758 287.119 134.847 287.851C134.933 288.538 135.031 289.225 135.156 289.903C135.646 292.622 136.428 295.279 137.559 297.716C138.684 300.147 140.174 302.362 142.025 304.024C143.865 305.704 146.063 306.756 148.441 307.084L148.071 307.06H164.559L163.708 307.187C165.889 306.507 167.92 305.543 169.406 304.239C170.893 302.931 171.72 301.333 171.757 299.616C171.832 297.9 171.075 296.041 169.789 294.565C168.51 293.079 166.731 291.978 164.816 291.499C163.742 291.23 162.96 290.395 162.706 289.389V289.381L161.734 285.495C161.424 284.248 161.965 282.986 162.99 282.332L163.004 282.323C170.285 277.682 176.462 271.259 181.396 264.015C186.333 256.753 190.063 248.639 192.524 240.174C194.982 231.704 196.17 222.859 195.92 214.065C195.675 205.276 193.966 196.54 190.742 188.396L190.738 188.388C190.145 186.893 190.876 185.199 192.371 184.606C193.864 184.012 195.556 184.744 196.149 186.24L196.15 186.242Z" fill="#000072"/>
<path d="M161.691 285.283L154.248 234.853C154.107 233.897 154.766 233.008 155.72 232.867C156.645 232.729 157.51 233.352 157.688 234.262L167.425 284.301C167.733 285.881 166.704 287.413 165.125 287.72C163.547 288.028 162.018 286.997 161.711 285.416C161.704 285.377 161.695 285.325 161.688 285.285L161.691 285.283Z" fill="#000072"/>
<path d="M84.1227 249.944C89.369 248.754 94.9921 248.475 100.421 249.852C105.851 251.166 110.89 254.323 114.536 258.61C118.207 262.9 120.529 268.133 121.788 273.47C123.053 278.828 123.31 284.325 122.953 289.72L120.659 286.922C122.806 287.132 124.985 287.559 127.124 288.364C129.255 289.164 131.368 290.366 133.122 292.137C134.876 293.891 136.178 296.252 136.628 298.784C137.093 301.31 136.793 303.942 135.755 306.298C134.73 308.64 132.913 310.81 130.33 312.018C129.065 312.612 127.561 312.912 126.227 312.902L123.238 312.911L111.283 312.945L99.3256 312.979L93.347 312.995L91.8519 312.998C91.3571 313.002 90.748 312.923 90.2032 312.885C89.6315 312.846 89.1046 312.773 88.5741 312.699C88.0418 312.63 87.5095 312.562 86.9825 312.458C82.7473 311.744 78.6478 310.311 74.8484 308.334C71.065 306.325 67.5729 303.768 64.5469 300.743C58.4718 294.712 54.2652 286.82 52.6289 278.408C50.957 270.017 51.9716 261.056 55.3602 253.25C56.1961 251.291 57.1518 249.384 58.2539 247.566C59.3417 245.743 60.5993 243.988 61.805 242.387C64.254 239.12 66.8995 235.983 69.7271 233.006C75.3825 227.058 81.9041 221.823 89.1671 217.814L88.4705 218.347L111.419 194.638C112.537 193.482 114.379 193.453 115.532 194.573C116.686 195.693 116.72 197.534 115.602 198.69L92.7111 222.456C92.5074 222.667 92.2806 222.841 92.0377 222.979L92.0144 222.991C85.3534 226.693 79.3319 231.538 74.0445 237.13C71.4026 239.93 68.9144 242.891 66.5994 245.999C65.4186 247.58 64.363 249.067 63.4127 250.665C62.4552 252.252 61.6282 253.915 60.9083 255.617C57.9842 262.433 57.1696 270.001 58.5987 277.243C60.0098 284.464 63.6234 291.232 68.8465 296.413C74.0535 301.609 80.8217 305.2 88.0293 306.484C88.4776 306.577 88.9313 306.636 89.3833 306.699C89.837 306.763 90.2943 306.831 90.714 306.86C91.1588 306.888 91.5375 306.962 92.0359 306.962L93.522 306.965L99.4668 306.981L111.358 307.015L123.249 307.049L126.222 307.058C126.874 307.06 127.361 306.955 127.904 306.72C128.951 306.255 129.932 305.242 130.509 303.958C131.1 302.681 131.295 301.187 131.059 299.793C130.823 298.394 130.162 297.093 129.142 296.002C128.119 294.909 126.738 294.03 125.168 293.399C123.599 292.762 121.856 292.361 120.061 292.102L119.97 292.089C118.608 291.892 117.651 290.66 117.767 289.304C118.201 284.351 118.064 279.349 117.038 274.56C116.018 269.785 114.075 265.219 111.053 261.533C108.068 257.835 103.999 255.06 99.3649 253.779C94.7421 252.457 89.7173 252.488 84.8265 253.373H84.814C83.8655 253.547 82.9563 252.915 82.7848 251.965C82.6186 251.042 83.2135 250.155 84.1173 249.949L84.1227 249.944Z" fill="#000072"/>
<path d="M108.862 309.146L109.693 301.652C109.77 300.961 110.39 300.466 111.079 300.543C111.674 300.609 112.124 301.081 112.187 301.652L113.017 309.146C113.144 310.297 112.317 311.331 111.17 311.46C110.022 311.587 108.989 310.758 108.861 309.61C108.845 309.456 108.845 309.295 108.861 309.146H108.862Z" fill="#000072"/>
<path d="M119.877 309.146L120.707 301.652C120.784 300.961 121.404 300.466 122.093 300.543C122.688 300.609 123.138 301.081 123.203 301.652L124.033 309.146C124.16 310.297 123.333 311.331 122.186 311.46C121.038 311.587 120.005 310.758 119.877 309.61C119.859 309.456 119.86 309.295 119.877 309.146Z" fill="#000072"/>
<path d="M162.481 309.146L163.312 301.652C163.388 300.961 164.008 300.466 164.698 300.543C165.293 300.609 165.743 301.081 165.807 301.652L166.638 309.146C166.764 310.297 165.937 311.331 164.791 311.46C163.642 311.587 162.61 310.758 162.481 309.61C162.463 309.456 162.465 309.295 162.481 309.146Z" fill="#000072"/>
<path d="M180.563 309.146L181.394 302.486C181.48 301.795 182.108 301.307 182.796 301.392C183.379 301.466 183.818 301.927 183.888 302.486L184.718 309.146C184.861 310.297 184.048 311.345 182.9 311.488C181.751 311.631 180.704 310.817 180.562 309.667C180.54 309.493 180.542 309.313 180.562 309.146H180.563Z" fill="#000072"/>
<path d="M189.707 309.146L190.538 302.486C190.624 301.795 191.253 301.307 191.94 301.392C192.523 301.466 192.962 301.927 193.032 302.486L193.862 309.146C194.005 310.297 193.192 311.345 192.044 311.488C190.895 311.631 189.849 310.817 189.706 309.667C189.684 309.493 189.686 309.313 189.706 309.146H189.707Z" fill="#000072"/>
<path d="M151.674 309.146L152.505 301.652C152.582 300.961 153.201 300.466 153.891 300.543C154.486 300.609 154.936 301.081 155 301.652L155.831 309.146C155.958 310.297 155.131 311.331 153.984 311.46C152.835 311.587 151.803 310.758 151.674 309.61C151.656 309.456 151.658 309.295 151.674 309.146Z" fill="#000072"/>
<path d="M192.115 312.893H174.974C171.391 312.893 168.476 309.973 168.476 306.384C168.476 304.776 169.778 303.47 171.385 303.47C172.993 303.47 174.295 304.774 174.295 306.384C174.295 306.76 174.601 307.064 174.976 307.064H192.117C194.148 307.064 195.889 305.688 196.257 303.793C197.015 299.899 194.836 295.295 190.959 292.597C190.184 292.059 189.72 291.177 189.711 290.232L189.32 249.946C189.304 248.337 190.595 247.019 192.201 247.002H192.229C193.823 247.002 195.123 248.289 195.139 249.888L195.516 288.744C200.514 292.853 203.085 299.172 201.97 304.904C201.071 309.531 196.927 312.891 192.119 312.891L192.115 312.893Z" fill="#000072"/>
<path d="M51.9912 289.193C33.4961 289.193 18.4611 282.185 9.22068 269.108C-2.45796 252.584 -3.07958 228.536 7.55588 204.776C7.58625 204.71 7.61661 204.646 7.65055 204.583C16.3032 188.555 26.7029 186.725 33.5515 190.358C42.3453 195.024 46.9056 209.392 39.698 223.362C34.0123 235.373 33.2371 246.791 37.5742 254.692C40.9073 260.764 47.0235 264.507 55.26 265.519C56.8552 265.714 57.9895 267.169 57.793 268.767C57.5965 270.364 56.1496 271.502 54.5509 271.304C44.5245 270.073 36.6846 265.169 32.4744 257.499C27.1441 247.786 27.8497 234.758 34.4625 220.816C34.4768 220.783 34.4928 220.753 34.5089 220.724C40.0803 209.97 37.0401 198.803 30.8292 195.507C25.256 192.55 18.361 197.053 12.8236 207.26C3.08484 229.085 3.51176 250.94 13.9722 265.74C23.0196 278.542 38.6298 284.718 57.9162 283.112C59.5221 282.995 60.9243 284.172 61.0565 285.776C61.1887 287.379 59.999 288.787 58.3967 288.921C56.221 289.101 54.0847 289.191 51.9929 289.191L51.9912 289.193Z" fill="#000072"/>
<g opacity="0.3">
<path opacity="0.3" d="M205.918 178.216L205.319 181.046C194.986 187.242 183.788 191.895 172.141 194.967C99.6757 214.076 52.5325 173.652 80.4555 110.631L96.4658 92.2055L108.253 101.131C73.8034 140.264 110.556 220.771 205.916 178.216H205.918Z" fill="#000072"/>
</g>
<g opacity="0.3">
<path opacity="0.3" d="M142.946 292.842L132.716 239.041C132.388 237.311 130.169 236.787 129.103 238.188L121.595 248.054C119.918 250.259 116.708 250.534 114.682 248.647C105.247 210.521 138.94 200.155 140.794 199.622C128.615 202.436 117.924 199.805 112.364 197.849L90.5908 220.404C79.7999 226.365 70.7382 235.1 62.95 245.891C57.4304 253.534 54.4206 262.786 54.9189 272.202C56.0086 292.651 72.144 308.579 91.3642 309.953C91.082 309.687 90.7998 309.42 90.5086 309.146C50.2639 271.245 85.9536 251.379 85.9536 251.379C127.668 248.148 120.363 289.513 120.363 289.513L132.774 296.274L132.89 296.333L132.74 295.433L132.125 291.712C132.999 296.107 137.13 310.272 153.755 309.98V303.903C149.225 302.029 145.583 298.432 142.948 292.846L142.946 292.842ZM131.914 290.486L132.122 291.694C131.989 291.06 131.93 290.628 131.914 290.486Z" fill="#000072"/>
</g>
<g opacity="0.3">
<path opacity="0.3" d="M132.122 291.694C131.989 291.06 131.93 290.627 131.914 290.486L132.122 291.694Z" fill="#000072"/>
</g>
<g opacity="0.3">
<path opacity="0.3" d="M132.122 291.694C131.989 291.06 131.93 290.627 131.914 290.486L132.122 291.694Z" fill="#000072"/>
</g>
<g opacity="0.3">
<path opacity="0.3" d="M58.1521 286.015C13.9598 289.686 -6.58235 254.152 7.06834 213.969V213.96C7.96683 211.312 9.01358 208.648 10.2104 205.966C21.3424 185.351 35.1753 189.856 39.1908 201.928V201.937C19.081 197.849 -4.64424 270.679 45.4749 265.782H45.4839C48.2347 267.09 51.3946 267.981 54.9118 268.414L58.1539 286.015H58.1521Z" fill="#000072"/>
</g>
<path d="M203.465 116.723C201.993 117.471 200.516 118.333 199.2 119.273C197.88 120.23 196.667 121.264 195.602 122.409C194.534 123.545 193.578 124.761 192.807 126.1C192.383 126.744 192.065 127.454 191.72 128.15C191.386 128.851 191.149 129.605 190.847 130.329L187.26 127.823C187.712 127.506 188.014 127.34 188.382 127.145C188.734 126.953 189.091 126.794 189.448 126.629C190.165 126.318 190.901 126.071 191.644 125.867C193.133 125.468 194.677 125.275 196.204 125.343C197.724 125.438 199.237 125.647 200.629 126.193C202.042 126.654 203.317 127.409 204.482 128.232C204.839 128.485 204.925 128.98 204.673 129.34C204.487 129.603 204.171 129.719 203.874 129.662L203.783 129.644C203.126 129.517 202.504 129.334 201.874 129.22C201.234 129.139 200.623 128.991 199.998 128.966C198.76 128.842 197.54 128.884 196.361 129.055C195.179 129.202 194.036 129.524 192.946 129.944C192.399 130.15 191.876 130.408 191.363 130.669C191.113 130.809 190.86 130.943 190.627 131.095C190.404 131.227 190.132 131.428 190.032 131.501L189.99 131.533C188.97 132.285 187.535 132.065 186.785 131.043C186.338 130.435 186.238 129.665 186.446 128.994C187.026 127.146 187.717 125.296 188.8 123.638C189.806 121.944 191.154 120.455 192.651 119.205C194.15 117.949 195.834 116.941 197.624 116.272C199.41 115.576 201.241 115.161 203.201 115.174C203.64 115.176 203.994 115.535 203.992 115.975C203.99 116.283 203.814 116.55 203.558 116.68L203.469 116.725L203.465 116.723Z" fill="#000072"/>
<path d="M145.59 150.868C151.744 148.529 154.247 140.071 151.18 131.977C148.113 123.883 140.638 119.217 134.485 121.556C128.331 123.895 125.828 132.352 128.895 140.447C131.961 148.541 139.436 153.207 145.59 150.868Z" fill="#000072"/>
<path d="M143.363 136.757C145.161 136.073 145.892 133.603 144.997 131.239C144.101 128.875 141.918 127.513 140.12 128.196C138.322 128.879 137.591 131.349 138.487 133.713C139.382 136.077 141.566 137.44 143.363 136.757Z" fill="white"/>
<path d="M99.4078 226.734C106.412 228.391 113.673 226.644 119.698 221.866C124.968 217.686 124.31 209.46 118.546 205.998L104.581 197.611C100.242 195.006 94.5098 196.024 91.6196 200.182C88.8313 204.193 88.0078 209.29 88.6276 214.418C89.3475 220.374 93.5792 225.355 99.4096 226.734H99.4078Z" fill="#FF960B"/>
<g opacity="0.3">
<path opacity="0.3" d="M121.484 212.92C115.461 217.699 108.2 219.443 101.194 217.788C95.3635 216.409 91.1318 211.43 90.412 205.472C90.2977 204.522 90.2494 203.576 90.2369 202.635C88.5864 206.177 88.1255 210.283 88.6257 214.418C89.3456 220.374 93.5772 225.355 99.4076 226.734C106.412 228.391 113.673 226.646 119.698 221.866C122.956 219.281 123.942 215.151 122.861 211.555C122.454 212.042 122.006 212.505 121.484 212.92Z" fill="#000072"/>
</g>
<g opacity="0.55">
<path opacity="0.55" d="M89.8315 206.444C92.7217 202.286 98.4539 201.266 102.793 203.873L116.758 212.26C119.668 214.008 121.272 216.969 121.474 220.011C124.696 215.588 123.546 209.002 118.544 205.998L104.579 197.611C100.24 195.005 94.508 196.024 91.6178 200.182C89.8923 202.664 88.9223 205.564 88.5793 208.627C88.9473 207.873 89.3492 207.136 89.8315 206.444Z" fill="white"/>
</g>
<path d="M104.67 230.267C102.698 230.267 100.714 230.037 98.7397 229.57C91.8358 227.936 86.6109 221.989 85.7374 214.769C85.0229 208.854 86.0733 203.472 88.7741 199.203C92.436 193.418 100.238 191.605 106.165 195.166L120.041 203.499C123.608 205.641 125.898 209.408 126.17 213.575C126.439 217.729 124.739 221.585 121.504 224.15C116.426 228.178 110.604 230.267 104.67 230.267ZM100.076 223.896C106.222 225.351 112.551 223.816 117.89 219.581C119.605 218.221 120.505 216.169 120.361 213.953C120.212 211.663 119.005 209.673 117.047 208.498L103.171 200.164C99.9276 198.219 95.6745 199.186 93.6863 202.324C91.1927 206.265 91.1266 210.886 91.5125 214.067C92.093 218.873 95.5334 222.823 100.074 223.896H100.076Z" fill="#000072"/>
</g>
<defs>
<clipPath id="clip0_62_934">
<rect width="265.485" height="312.124" fill="white" transform="translate(198.515 0.876282)"/>
</clipPath>
<clipPath id="clip1_62_934">
<rect width="233.196" height="261.897" fill="white" transform="translate(0 51.1031)"/>
</clipPath>
</defs>
</svg>
