<svg width="64" height="74" viewBox="0 0 64 74" fill="none" xmlns="http://www.w3.org/2000/svg">
<path d="M63.9739 18.7786V44.9078C63.9739 55.2784 55.5339 63.6863 45.1237 63.6863H43.217L33.4805 73.3795C33.0992 73.7594 32.5717 74 31.987 74C31.4467 74 30.9574 73.8037 30.5824 73.4745L30.4172 73.3099L30.4108 73.3036L20.7569 63.6863H18.8439C8.44003 63.6863 0 55.2784 0 44.9078V18.7786C0 8.40794 8.44003 0 18.8503 0H45.1237C55.5339 0 63.9739 8.40794 63.9739 18.7786Z" fill="#FFBC10"/>
<path d="M32 53.72C32 53.72 10 41.4 10 26.44C10 23.7954 10.9163 21.2324 12.593 19.1872C14.2696 17.142 16.6031 15.7408 19.1964 15.2222C21.7897 14.7035 24.4826 15.0994 26.8169 16.3424C29.1513 17.5854 30.9828 19.5988 32 22.04C33.0172 19.5988 34.8487 17.5854 37.1831 16.3424C39.5174 15.0994 42.2103 14.7035 44.8036 15.2222C47.3969 15.7408 49.7304 17.142 51.407 19.1872C53.0837 21.2324 54 23.7954 54 26.44C54 41.4 32 53.72 32 53.72Z" fill="white"/>
</svg>
